<svg width="544" height="544" xmlns="http://www.w3.org/2000/svg" version="1.1">

 <g>
  <title>Layer 1</title>
  <ellipse ry="209.49999" rx="214.00001" id="svg_74" cy="275.49999" cx="272.00001" fill="#ffffff"/>
  <path id="svg_25" d="m319.174,356.8l0.05469,39.879l133.27,-105.06c-0.19141,-12.402 0.19141,-26.699 0,-39.102l-133.27,-105.06l0.10547,40.242l109.39,84.191l-109.55016,84.91zm-93.824,-169.54l-0.05469,-39.879l-133.27,105.06c0.19141,12.402 -0.19141,26.699 0,39.102l133.27,105.06l-0.10547,-40.242l-109.39,-84.195l109.55016,-84.906zm318.63,84.73c0,150.21 -121.77,271.99 -271.99,271.99s-271.99,-121.77 -271.99,-271.99s121.77,-271.99 271.99,-271.99s271.99,121.77 271.99,271.99z"/>
 </g>
</svg>